<?xml version="1.0" encoding="UTF-8"?>
<svg id="a" data-name="Layer 1" xmlns="http://www.w3.org/2000/svg" viewBox="0 0 205.88 126.7">
  <defs>
    <style>
      .b {
        fill: #231f20;
      }
    </style>
  </defs>
  <g>
    <path class="b" d="M27.89,78.32c-1.22-.18-1.33-.65-1.33-1.66v-15.66c0-2.81-.04-6.01-.29-8.1,3.1-.79,6.7-1.3,9.94-1.3,11.37,0,15.19,5.83,15.19,13.35,0,9.25-5.9,13.86-15.23,13.86-2.52,0-7.27-.32-8.28-.5ZM34.66,74.9c6.41,0,8.93-3.2,8.93-9.29,0-8.35-3.17-10.4-7.63-10.4-.54,0-1.15.04-1.84.11v19.58h.54Z"/>
    <path class="b" d="M50.57,69.25c0-6.48,4.86-10.37,11.01-10.37,5.11,0,8.06,2.7,8.06,6.12,0,4.5-5.33,5.83-11.27,5.33.5,2.56,2.05,3.71,4.61,3.71,2.27,0,3.71-.86,5.11-2.7.68.43,1.01,1.12,1.01,1.91,0,2.7-3.42,5.58-8.6,5.58-5.72,0-9.93-3.53-9.93-9.58ZM63.1,64.57c0-1.37-.68-2.09-1.8-2.09-1.73,0-3.1,1.69-3.1,5.62v.14c3.85-.43,4.9-1.94,4.9-3.67Z"/>
    <path class="b" d="M78.65,65.29v-17.64l-3.82.22c-.72-3.96-.22-5.47,1.3-6.12.72-.29,2.02-.07,2.74-.22,2.09-3.38,6.99-9.07,9.29-11.45,1.8-.29,3.6-.22,5.26,0,.07,1.58.14,4.54,0,11.38,3.74.07,6.77,0,9.29-.14.36.5.5,1.37.5,1.87,0,3.1-1.58,4.54-4.32,4.54l-5.54-.07v13.39c0,7.85,1.51,10.08,5.62,10.08,1.51,0,2.66-.29,3.46-.79-.43,3.38-3.89,9.07-11.02,9.07-11.59,0-12.75-9.07-12.75-14.11Z"/>
    <path class="b" d="M98.38,60.24c0-12.96,9.72-20.74,22.03-20.74,10.22,0,16.13,5.4,16.13,12.24,0,9-10.66,11.67-22.54,10.66,1.01,5.11,4.1,7.42,9.22,7.42,4.54,0,7.42-1.73,10.22-5.4,1.37.86,2.02,2.23,2.02,3.82,0,5.4-6.84,11.16-17.21,11.16-11.45,0-19.87-7.06-19.87-19.15ZM123.44,50.88c0-2.74-1.37-4.18-3.6-4.18-3.46,0-6.19,3.38-6.19,11.23v.29c7.71-.86,9.79-3.89,9.79-7.34Z"/>
    <path class="b" d="M162.53,68.17v-10.01c0-5.54-.43-9.72-5.04-9.72-4.18,0-6.19,4.32-6.19,8.79v10.51c0,2.52.36,6.26.65,9.07-2.45,1.44-6.34,2.59-9.43,2.59-4.18,0-5.9-2.02-5.9-5.4v-11.74c0-13.03-.65-17.71-1.73-20.16,2.52-1.08,7.13-2.59,10.58-2.59,4.32,0,5.83,2.02,5.83,5.4v1.22c2.74-5.47,9.14-6.62,12.82-6.62,7.42,0,13.11,3.96,13.11,13.83v13.18c0,3.24.79,6.55,3.67,6.84-.86,2.66-4.1,6.05-9.36,6.05-6.41,0-9-4.82-9-11.23Z"/>
    <path class="b" d="M180.68,65.29v-17.64l-3.82.22c-.72-3.96-.22-5.47,1.3-6.12.72-.29,2.02-.07,2.74-.22,2.09-3.38,6.99-9.07,9.29-11.45,1.8-.29,3.6-.22,5.26,0,.07,1.58.14,4.54,0,11.38,3.74.07,6.77,0,9.29-.14.36.5.5,1.37.5,1.87,0,3.1-1.58,4.54-4.32,4.54l-5.54-.07v13.39c0,7.85,1.51,10.08,5.62,10.08,1.51,0,2.66-.29,3.46-.79-.43,3.38-3.89,9.07-11.02,9.07-11.59,0-12.75-9.07-12.75-14.11Z"/>
    <path class="b" d="M25.54,94.04v-3.05c0-1.78-.46-2.98-.94-3.79.82-.65,2.38-.86,3.31-.86,1.73,0,2.52.67,2.52,3.02v3.89c0,2.71.48,3.46,1.46,3.46,1.44,0,2.06-1.97,2.06-4.44s-.77-4.01-1.58-5.26c.6-.38,1.54-.67,2.59-.67,1.54,0,3.6.65,3.6,4.01,0,4.18-2.81,9.29-7.92,9.29-4.63,0-5.11-3.82-5.11-5.59Z"/>
    <path class="b" d="M40.33,93.2c0-4.66,2.54-6.86,5.54-6.86,1.8,0,2.95.53,3.74,1.22.67-.7,1.9-1.06,3-1.06,1.56,0,1.63.67,1.63,2.11v6.82c0,1.39.5,2.11,1.22,2.18-.22.74-1.3,2.02-3.14,2.02s-2.54-1.13-2.71-2.4c-.65,1.3-2.02,2.4-4.18,2.4-3.02,0-5.11-2.21-5.11-6.43ZM47.45,96.85c1.18,0,1.9-.96,1.9-2.35v-4.99c-.38-.29-.91-.53-1.61-.53-1.7,0-2.35,1.22-2.35,3.86,0,2.26.5,4.01,2.06,4.01Z"/>
    <path class="b" d="M66.27,95.89v-3.34c0-1.85-.14-3.24-1.68-3.24-1.39,0-2.06,1.44-2.06,2.93v3.5c0,.84.12,2.09.22,3.02-.82.48-2.11.86-3.14.86-1.39,0-1.97-.67-1.97-1.8v-3.91c0-4.34-.22-5.91-.58-6.72.84-.36,2.38-.86,3.53-.86,1.44,0,1.94.67,1.94,1.8v.41c.91-1.82,3.05-2.21,4.27-2.21,2.47,0,4.37,1.32,4.37,4.61v4.39c0,1.08.26,2.18,1.22,2.28-.29.89-1.37,2.02-3.12,2.02-2.14,0-3-1.61-3-3.74Z"/>
    <path class="b" d="M85.47,99.63c-3.84,0-5.76-1.85-5.76-4.18,0-2.11,1.58-3.22,3.74-2.9,0,2.59.19,4.63,1.78,4.63,1.3,0,1.58-1.37,1.58-4.99v-3.82c0-1.7-.05-4.39-.29-6.02.84-.48,2.21-.86,3.36-.86,1.56,0,1.97.67,1.97,1.92,0,.46-.07,2.71-.07,5.76v3.55c0,4.22-1.68,6.91-6.31,6.91Z"/>
    <path class="b" d="M93.97,92.98c0-3.89,2.76-6.65,7.15-6.65s7.15,2.76,7.15,6.65-2.64,6.65-7.15,6.65-7.15-2.76-7.15-6.65ZM103.21,92.98c0-3.36-.84-4.25-2.09-4.25-1.13,0-2.09.89-2.09,4.25s.96,4.25,2.09,4.25c1.25,0,2.09-.89,2.09-4.25Z"/>
    <path class="b" d="M110.12,96.77c0-.84.34-1.78,1.27-2.3.65,1.32,2.14,2.54,3.94,2.54,1.2,0,1.75-.38,1.75-.86,0-1.42-6.91-.98-6.91-5.38,0-2.62,2.26-4.44,6.12-4.44,3.07,0,5.02.98,5.02,2.57,0,.77-.53,1.9-1.3,2.16-.77-1.27-2.62-2.09-3.98-2.09-.72,0-1.13.24-1.13.7,0,2.04,7.01,1.25,7.01,5.64,0,2.42-1.92,4.32-6.36,4.32-3.22,0-5.42-1.03-5.42-2.86Z"/>
  </g>
  <path class="b" d="M3.74,58.14c26.2-12.77,51.59-27.2,75.96-43.2,2.93-1.92,5.81-3.93,8.78-5.8,2.73-1.72,5.58-3.26,8.77-3.91,6.51-1.32,12.9,2.62,18.46,5.42,12.6,6.37,25.97,11.59,39.95,13.89,16.1,2.64,32.71,1.51,48.29-3.37,3.06-.96,1.75-5.79-1.33-4.82-13.74,4.3-28.32,5.63-42.61,3.81s-27.52-6.77-40.14-13.01C113.72,4.12,107.51.29,100.46.01s-12.97,3.74-18.55,7.48c-12.18,8.15-24.62,15.9-37.3,23.24-14.18,8.21-28.65,15.91-43.39,23.09-1.21.59-1.54,2.32-.9,3.42.72,1.24,2.2,1.49,3.42.9h0Z"/>
</svg>